<?xml version="1.0" encoding="utf-8"?>
<!-- Generator: Adobe Illustrator 25.4.1, SVG Export Plug-In . SVG Version: 6.00 Build 0)  -->
<svg version="1.1" id="Calque_1" xmlns="http://www.w3.org/2000/svg" xmlns:xlink="http://www.w3.org/1999/xlink" x="0px" y="0px"
	 viewBox="0 0 150 150" style="enable-background:new 0 0 150 150;" xml:space="preserve">
<style type="text/css">
	.st0{fill:#FFFFFF;}
	.st1{fill:#FFCC00;}
</style>
<circle class="st0" cx="74.9" cy="74.4" r="70.7"/>
<path id="fleche" class="st1" d="M129.7,66.8L87,24.2c-4.3-4.3-11.2-4.3-15.5,0c-4.3,4.3-4.3,11.2,0,15.5l24,24L27,63.7
	c-6.1,0-11,4.9-10.9,11c0,6,4.9,10.9,11,10.9l68.5-0.1l-24,24c-4.3,4.3-4.3,11.2,0,15.5c4.3,4.3,11.2,4.3,15.5,0l42.6-42.7
	c2.1-2.1,3.2-4.8,3.2-7.7C132.9,71.6,131.7,68.9,129.7,66.8z"/>
</svg>
