<?xml version="1.0" encoding="utf-8"?>
<!-- Generator: Adobe Illustrator 25.4.1, SVG Export Plug-In . SVG Version: 6.00 Build 0)  -->
<svg version="1.1" id="Calque_1" xmlns="http://www.w3.org/2000/svg" xmlns:xlink="http://www.w3.org/1999/xlink" x="0px" y="0px"
	 viewBox="0 0 150 150" style="enable-background:new 0 0 150 150;" xml:space="preserve">
<style type="text/css">
	.st0{fill:#FFFFFF;}
	.st1{fill:#00CC00;}
</style>
<circle class="st0" cx="74.9" cy="74.4" r="70.7"/>
<path id="fleche" class="st1" d="M82.3,129.8l42.6-42.7c4.3-4.3,4.3-11.2,0-15.5c-4.3-4.3-11.2-4.3-15.5,0l-24,24l-0.1-68.5
	c0-6.1-4.9-11-11-10.9c-6,0-10.9,4.9-10.9,11l0.1,68.5l-24-24c-4.3-4.3-11.2-4.3-15.5,0c-4.3,4.3-4.3,11.2,0,15.5l42.7,42.6
	c2.1,2.1,4.8,3.2,7.7,3.2C77.4,133,80.2,131.8,82.3,129.8z"/>
</svg>
