<?xml version="1.0" encoding="utf-8"?>
<!-- Generator: Adobe Illustrator 25.4.1, SVG Export Plug-In . SVG Version: 6.00 Build 0)  -->
<svg version="1.1" id="Calque_1" xmlns="http://www.w3.org/2000/svg" xmlns:xlink="http://www.w3.org/1999/xlink" x="0px" y="0px"
	 viewBox="0 0 150 150" style="enable-background:new 0 0 150 150;" xml:space="preserve">
<style type="text/css">
	.st0{fill:#FFFFFF;}
	.st1{fill:#FF3300;}
</style>
<circle class="st0" cx="74.9" cy="74.4" r="70.7"/>
<path id="fleche" class="st1" d="M66.7,19.4L24.1,62.1c-4.3,4.3-4.3,11.2,0,15.5c4.3,4.3,11.2,4.3,15.5,0l24-24l0.1,68.5
	c0,6.1,4.9,11,11,10.9c6,0,10.9-4.9,10.9-11l-0.1-68.5l24,24c4.3,4.3,11.2,4.3,15.5,0c4.3-4.3,4.3-11.2,0-15.5L82.2,19.4
	c-2.1-2.1-4.8-3.2-7.7-3.2C71.5,16.2,68.8,17.3,66.7,19.4z"/>
</svg>
